# xmcd CD database file
#
# Track frame offsets:
#	150
#	24530
#	45923
#	68073
#	86004
#	110240
#	135735
#	164442
#	184441
#	199794
#	223290
#	241928
#
# Disc length: 3404 seconds
#
# Revision: 0
# Processed by: cddbd v1.5.2PL0 Copyright (c) Steve Scherf et al.
# Submitted via: CDex 1.70beta3
#
DISCID=b10d4a0c
DTITLE=青木カレン - SHINING
DYEAR=2008
DGENRE=Jazz
TTITLE0=LOVE FOR SALE
TTITLE1=SHINING
TTITLE2=ENGLISH MAN IN NEW YORK
TTITLE3=SUMMER TIME
TTITLE4=TAKE MY HEART
TTITLE5=WONDERFUL SOUNDS
TTITLE6=LAST NINE DAYS
TTITLE7=FLY ME TO THE MOON
TTITLE8=LIGHT MY FIRE
TTITLE9=ARE YOU GONNA GO MY WAY
TTITLE10=SUNRISE
TTITLE11=CLIMB EVERY MOUNTAIN
EXTD=YEAR: 2008
EXTT0=
EXTT1=
EXTT2=
EXTT3=
EXTT4=
EXTT5=
EXTT6=
EXTT7=
EXTT8=
EXTT9=
EXTT10=
EXTT11=
PLAYORDER=
